# xmcd CD database file
#
# Track frame offsets:
#	150
#	13637
#	28950
#	47415
#	60792
#	74455
#	92595
#	114285
#	130945
#	144065
#	165710
#	176825
#
# Disc length: 2549 seconds
#
# Revision: 1
# Processed by: cddbd v1.5PL3 Copyright (c) Steve Scherf et al.
# Submitted via: CDex 1.50
#
DISCID=9509f30c
DTITLE=Shane MacGowan and The Popes - The Snake
DYEAR=1994
DGENRE=Celtic
TTITLE0=The Church And The Holy Spooke
TTITLE1=That Woman's Got Me Drinking
TTITLE2=The Song Wiith No Name
TTITLE3=Aisling
TTITLE4=I'll Be Your Handbag
TTITLE5=Her Father Didn't Like Me Anyway
TTITLE6=A Mexican Funeral In Paris
TTITLE7=The Snake With Eyes Of Garnet
TTITLE8=Donegal Express
TTITLE9=Victoria
TTITLE10=The Rising Of The Moon
TTITLE11=Bring Down The Lamp
EXTD=YEAR: 1994
EXTT0=
EXTT1=
EXTT2=
EXTT3=
EXTT4=
EXTT5=
EXTT6=
EXTT7=
EXTT8=
EXTT9=
EXTT10=
EXTT11=
PLAYORDER=
